<svg xmlns="http://www.w3.org/2000/svg" width="128" height="128" fill="none"><path fill="#ACCCF8" d="M61.803 82.168 48.227 95.745V82.168H27.862a3.394 3.394 0 0 1-3.395-3.394V27.861a3.394 3.394 0 0 1 3.395-3.394h61.095a3.394 3.394 0 0 1 3.394 3.395v50.912a3.394 3.394 0 0 1-3.394 3.394H61.803Z"/><path fill="#fff" d="M27.861 82.168h1.697l57.701-57.7H27.861a3.394 3.394 0 0 0-3.394 3.393v50.913a3.394 3.394 0 0 0 3.395 3.394Z"/><path stroke="#1772EB" stroke-linecap="round" stroke-linejoin="round" stroke-width="3.54" d="m54.76 89.211-6.533 6.534V82.168H27.862a3.394 3.394 0 0 1-3.395-3.394V27.861a3.394 3.394 0 0 1 3.395-3.394h61.095a3.394 3.394 0 0 1 3.394 3.395V51.62"/><path fill="#fff" d="M61.803 88.956h16.97l13.577 13.577V88.956h6.789a3.396 3.396 0 0 0 3.394-3.394v-23.76a3.397 3.397 0 0 0-3.394-3.393H65.197a3.394 3.394 0 0 0-3.394 3.394v27.153Z"/><path fill="#fff" d="M99.139 58.409H65.197a3.394 3.394 0 0 0-3.394 3.394v27.153h6.788L99.14 58.41Z"/><path stroke="#1772EB" stroke-linecap="round" stroke-linejoin="round" stroke-width="3.54" d="M61.803 88.956h16.97l13.577 13.577V88.956h6.789a3.396 3.396 0 0 0 3.394-3.394v-23.76a3.397 3.397 0 0 0-3.394-3.393H65.197a3.394 3.394 0 0 0-3.394 3.394v27.153ZM39.74 38.044h37.337M39.74 51.62h37.337M71.985 68.591H92.35M71.985 78.774H92.35M39.74 65.197h15.274"/></svg>