<svg xmlns="http://www.w3.org/2000/svg" width="128" height="128" fill="none"><path fill="#fff" d="M87.36 90.954v7.187a7.206 7.206 0 0 1-7.188 7.188H47.828a7.21 7.21 0 0 1-7.188-7.188v-7.187h46.72Z"/><path fill="#ACCCF8" d="M87.36 29.858v61.096H40.64V29.859a7.21 7.21 0 0 1 7.188-7.188h32.344a7.21 7.21 0 0 1 7.188 7.188Z"/><path fill="#fff" d="M87.36 40.13V29.858a7.208 7.208 0 0 0-7.188-7.187H47.828a7.21 7.21 0 0 0-7.188 7.188v56.99l46.72-46.72Z"/><path stroke="#1772EB" stroke-linecap="round" stroke-linejoin="round" stroke-width="3.54" d="M87.36 90.954H40.64M64 97.243a.898.898 0 1 1 0 1.796.898.898 0 0 1 0-1.796Z"/><path stroke="#1772EB" stroke-linecap="round" stroke-linejoin="round" stroke-width="3.54" d="M47.828 22.67h32.344s7.188 0 7.188 7.188v68.283s0 7.188-7.188 7.188H47.828s-7.188 0-7.188-7.188V29.858s0-7.187 7.188-7.187Z"/><path fill="#fff" d="M64.992 71C75.76 71 82.49 59.333 77.105 50c-5.384-9.334-18.844-9.333-24.227 0a14.008 14.008 0 0 0-1.874 7c0 7.732 6.262 14 13.988 14Z"/><path fill="#fff" d="M64.991 43c-10.767.014-17.483 11.689-12.088 21.015a14.004 14.004 0 0 0 2.896 3.523l19.718-19.736a13.931 13.931 0 0 0-10.526-4.801Z"/><path stroke="#1772EB" stroke-linecap="round" stroke-linejoin="round" stroke-width="3.54" d="M64.992 71C75.76 71 82.49 59.333 77.105 50c-5.384-9.334-18.844-9.333-24.227 0a14.008 14.008 0 0 0-1.874 7c0 7.732 6.262 14 13.988 14Z"/><path stroke="#1772EB" stroke-linecap="round" stroke-linejoin="round" stroke-width="3.54" d="m71.225 52.94-6.76 9.04a1.747 1.747 0 0 1-2.635.186l-3.497-3.5"/></svg>