<svg xmlns="http://www.w3.org/2000/svg" width="128" height="128" fill="none"><path fill="#ACCCF8" d="M106 76.74V28.695A3.696 3.696 0 0 0 102.304 25H24.696A3.696 3.696 0 0 0 21 28.696v48.043h85Z"/><path fill="#fff" d="M94.913 25H24.696A3.696 3.696 0 0 0 21 28.696v48.043h22.174L94.913 25ZM21 76.74v7.39a3.696 3.696 0 0 0 3.696 3.696h77.608A3.696 3.696 0 0 0 106 84.131v-7.392H21Z"/><path fill="#ACCCF8" stroke="#1772EB" stroke-linecap="round" stroke-linejoin="round" stroke-width="3.54" d="M74.587 102.609a25.793 25.793 0 0 1-5.543-14.783H57.957a25.793 25.793 0 0 1-5.544 14.783h22.174Z"/><path stroke="#1772EB" stroke-linecap="round" stroke-linejoin="round" stroke-width="3.54" d="M46.866 102.609h33.26M21 76.74h85M24.696 25h77.608S106 25 106 28.696V84.13s0 3.696-3.696 3.696H24.696S21 87.826 21 84.13V28.696S21 25 24.696 25Z"/><path fill="#fff" d="M63.587 39.696a1.567 1.567 0 0 1-1.4-.866l-1.483-2.964a1.565 1.565 0 0 0-1.4-.866H47.565A1.566 1.566 0 0 0 46 36.565V64.74a1.565 1.565 0 0 0 1.565 1.565h32.87A1.566 1.566 0 0 0 82 64.74V41.261a1.565 1.565 0 0 0-1.565-1.565H63.587Z"/><path fill="#fff" d="M63.587 39.696a1.567 1.567 0 0 1-1.4-.866l-1.483-2.964a1.565 1.565 0 0 0-1.4-.866H47.565A1.566 1.566 0 0 0 46 36.565V64.74a1.565 1.565 0 0 0 1.565 1.565h2.86l26.609-26.608H63.587Z"/><path stroke="#1772EB" stroke-linecap="round" stroke-linejoin="round" stroke-width="3.54" d="M63.587 39.696a1.567 1.567 0 0 1-1.4-.866l-1.483-2.964a1.565 1.565 0 0 0-1.4-.866H47.565A1.566 1.566 0 0 0 46 36.565V64.74a1.565 1.565 0 0 0 1.565 1.565h32.87A1.566 1.566 0 0 0 82 64.74V41.261a1.565 1.565 0 0 0-1.565-1.565H63.587Z"/></svg>