<svg xmlns="http://www.w3.org/2000/svg" width="128" height="128" fill="none"><path fill="#fff" d="M94.75 38.044c.637.636.994 1.5.995 2.4v58.695a3.395 3.395 0 0 1-3.395 3.394h-57.7a3.405 3.405 0 0 1-2.4-.994 3.395 3.395 0 0 1-.995-2.4V27.861a3.394 3.394 0 0 1 3.395-3.394h45.118c.9 0 1.763.358 2.4.995L94.75 38.044Z"/><path fill="#fff" d="m91.193 34.487-9.025-9.025a3.394 3.394 0 0 0-2.4-.995H34.65a3.394 3.394 0 0 0-3.395 3.395v66.56l59.938-59.935Z"/><path stroke="#1772EB" stroke-linecap="round" stroke-linejoin="round" stroke-width="3.54" d="M94.75 38.044c.637.636.994 1.5.995 2.4v58.695a3.395 3.395 0 0 1-3.395 3.394h-57.7a3.405 3.405 0 0 1-2.4-.994 3.395 3.395 0 0 1-.995-2.4V27.861a3.394 3.394 0 0 1 3.395-3.394h45.118c.9 0 1.763.358 2.4.995L94.75 38.044ZM43 51h26M43 68h26M43 85h26"/><path fill="#1772EB" stroke="#1772EB" stroke-linecap="round" stroke-linejoin="round" stroke-width="2" d="M79.782 46.171a.229.229 0 0 1 .22-.171.226.226 0 0 1 .22.171l.684 2.822h2.869a.226.226 0 0 1 .215.162.229.229 0 0 1-.09.255l-2.092 1.34 1.095 2.942a.23.23 0 0 1-.074.261.225.225 0 0 1-.27.004L80 52.116l-2.56 1.841a.225.225 0 0 1-.35-.122.23.23 0 0 1 .006-.143l1.096-2.942-2.091-1.34a.227.227 0 0 1-.091-.255.228.228 0 0 1 .215-.162h2.871l.686-2.822ZM79.782 64.171a.229.229 0 0 1 .22-.171.226.226 0 0 1 .22.171l.684 2.822h2.869a.226.226 0 0 1 .215.162.229.229 0 0 1-.09.255l-2.092 1.34 1.095 2.942a.23.23 0 0 1-.074.261.225.225 0 0 1-.27.004L80 70.116l-2.56 1.841a.225.225 0 0 1-.35-.122.23.23 0 0 1 .006-.143l1.096-2.942-2.091-1.34a.227.227 0 0 1-.091-.255.228.228 0 0 1 .215-.162h2.871l.686-2.822ZM79.782 81.171a.229.229 0 0 1 .22-.171.226.226 0 0 1 .22.171l.684 2.822h2.869a.226.226 0 0 1 .215.162.229.229 0 0 1-.09.255l-2.092 1.34 1.095 2.942a.23.23 0 0 1-.074.261.225.225 0 0 1-.27.004L80 87.116l-2.56 1.841a.225.225 0 0 1-.35-.122.23.23 0 0 1 .006-.143l1.096-2.942-2.091-1.34a.227.227 0 0 1-.091-.255.228.228 0 0 1 .215-.162h2.871l.686-2.822Z"/></svg>